<mxfile host="app.diagrams.net" modified="2020-03-17T19:39:38.163Z" agent="Mozilla/5.0 (Windows NT 10.0; Win64; x64; rv:74.0) Gecko/20100101 Firefox/74.0" etag="ZxEH_BZZZUFlva7dBVqF" version="12.8.6" type="github">
  <diagram name="Page-1" id="c4acf3e9-155e-7222-9cf6-157b1a14988f">
    <mxGraphModel dx="960" dy="683" grid="1" gridSize="10" guides="1" tooltips="1" connect="1" arrows="1" fold="1" page="1" pageScale="1" pageWidth="850" pageHeight="1100" background="#ffffff" math="0" shadow="0">
      <root>
        <mxCell id="0" />
        <mxCell id="1" parent="0" />
        <mxCell id="7bflwTFQs7nSPwEGFA_X-58" style="endArrow=open;endSize=12;dashed=1;html=1;fontFamily=Helvetica;fontSize=11;fontColor=#000000;align=center;strokeColor=#000000;edgeStyle=orthogonalEdgeStyle;" parent="1" source="7bflwTFQs7nSPwEGFA_X-6" target="7bflwTFQs7nSPwEGFA_X-59" edge="1">
          <mxGeometry relative="1" as="geometry">
            <mxPoint x="400" y="185" as="targetPoint" />
            <Array as="points">
              <mxPoint x="650" y="220" />
            </Array>
          </mxGeometry>
        </mxCell>
        <mxCell id="7bflwTFQs7nSPwEGFA_X-33" style="endArrow=none;html=1;edgeStyle=orthogonalEdgeStyle;fontFamily=Helvetica;fontSize=11;fontColor=#000000;align=center;strokeColor=#000000;entryX=-0.006;entryY=0.859;entryDx=0;entryDy=0;entryPerimeter=0;" parent="1" source="7bflwTFQs7nSPwEGFA_X-13" target="7bflwTFQs7nSPwEGFA_X-7" edge="1">
          <mxGeometry relative="1" as="geometry">
            <mxPoint x="310" y="112" as="targetPoint" />
            <Array as="points">
              <mxPoint x="250" y="121" />
              <mxPoint x="250" y="121" />
            </Array>
          </mxGeometry>
        </mxCell>
        <mxCell id="7bflwTFQs7nSPwEGFA_X-34" value="2" style="text;html=1;align=center;verticalAlign=middle;resizable=0;points=[];labelBackgroundColor=#ffffff;" parent="7bflwTFQs7nSPwEGFA_X-33" vertex="1" connectable="0">
          <mxGeometry x="-0.8133" y="-3" relative="1" as="geometry">
            <mxPoint y="-15" as="offset" />
          </mxGeometry>
        </mxCell>
        <mxCell id="7bflwTFQs7nSPwEGFA_X-35" value="1" style="text;html=1;align=center;verticalAlign=middle;resizable=0;points=[];labelBackgroundColor=#ffffff;" parent="7bflwTFQs7nSPwEGFA_X-33" vertex="1" connectable="0">
          <mxGeometry x="0.8343" relative="1" as="geometry">
            <mxPoint x="-4.17" y="-11" as="offset" />
          </mxGeometry>
        </mxCell>
        <mxCell id="7bflwTFQs7nSPwEGFA_X-65" style="endArrow=none;html=1;edgeStyle=orthogonalEdgeStyle;fontFamily=Helvetica;fontSize=11;fontColor=#000000;align=center;strokeColor=#000000;" parent="1" source="7bflwTFQs7nSPwEGFA_X-13" target="7bflwTFQs7nSPwEGFA_X-17" edge="1">
          <mxGeometry relative="1" as="geometry">
            <Array as="points">
              <mxPoint x="130" y="520" />
              <mxPoint x="130" y="520" />
            </Array>
          </mxGeometry>
        </mxCell>
        <mxCell id="7bflwTFQs7nSPwEGFA_X-49" style="endArrow=none;html=1;edgeStyle=orthogonalEdgeStyle;fontFamily=Helvetica;fontSize=11;fontColor=#000000;align=center;strokeColor=#000000;" parent="1" source="7bflwTFQs7nSPwEGFA_X-17" target="7bflwTFQs7nSPwEGFA_X-44" edge="1">
          <mxGeometry relative="1" as="geometry">
            <Array as="points">
              <mxPoint x="120" y="890" />
              <mxPoint x="120" y="890" />
            </Array>
          </mxGeometry>
        </mxCell>
        <mxCell id="7bflwTFQs7nSPwEGFA_X-38" style="endArrow=diamondThin;endFill=1;endSize=24;html=1;fontFamily=Helvetica;fontSize=11;fontColor=#000000;align=center;strokeColor=#000000;edgeStyle=orthogonalEdgeStyle;" parent="1" source="7bflwTFQs7nSPwEGFA_X-18" target="7bflwTFQs7nSPwEGFA_X-21" edge="1">
          <mxGeometry relative="1" as="geometry" />
        </mxCell>
        <mxCell id="7bflwTFQs7nSPwEGFA_X-39" value="25" style="text;html=1;align=center;verticalAlign=middle;resizable=0;points=[];labelBackgroundColor=#ffffff;" parent="7bflwTFQs7nSPwEGFA_X-38" vertex="1" connectable="0">
          <mxGeometry x="0.8524" relative="1" as="geometry">
            <mxPoint x="-193.57" y="-13" as="offset" />
          </mxGeometry>
        </mxCell>
        <mxCell id="7bflwTFQs7nSPwEGFA_X-13" value="Worker" style="swimlane;fontStyle=1;align=center;verticalAlign=top;childLayout=stackLayout;horizontal=1;startSize=26;horizontalStack=0;resizeParent=1;resizeParentMax=0;resizeLast=0;collapsible=1;marginBottom=0;" parent="1" vertex="1">
          <mxGeometry x="15" y="40" width="210" height="130" as="geometry">
            <mxRectangle x="20" y="32" width="70" height="26" as="alternateBounds" />
          </mxGeometry>
        </mxCell>
        <mxCell id="7bflwTFQs7nSPwEGFA_X-14" value="- color: Enum" style="text;strokeColor=none;fillColor=none;align=left;verticalAlign=top;spacingLeft=4;spacingRight=4;overflow=hidden;rotatable=0;points=[[0,0.5],[1,0.5]];portConstraint=eastwest;" parent="7bflwTFQs7nSPwEGFA_X-13" vertex="1">
          <mxGeometry y="26" width="210" height="26" as="geometry" />
        </mxCell>
        <mxCell id="7bflwTFQs7nSPwEGFA_X-15" value="" style="line;strokeWidth=1;fillColor=none;align=left;verticalAlign=middle;spacingTop=-1;spacingLeft=3;spacingRight=3;rotatable=0;labelPosition=right;points=[];portConstraint=eastwest;" parent="7bflwTFQs7nSPwEGFA_X-13" vertex="1">
          <mxGeometry y="52" width="210" height="8" as="geometry" />
        </mxCell>
        <mxCell id="7bflwTFQs7nSPwEGFA_X-16" value="+ move(): void&#xa;+ build(): void&#xa;+ place(Space): void&#xa;- chooseBlock()" style="text;strokeColor=none;fillColor=none;align=left;verticalAlign=top;spacingLeft=4;spacingRight=4;overflow=hidden;rotatable=0;points=[[0,0.5],[1,0.5]];portConstraint=eastwest;" parent="7bflwTFQs7nSPwEGFA_X-13" vertex="1">
          <mxGeometry y="60" width="210" height="70" as="geometry" />
        </mxCell>
        <mxCell id="7bflwTFQs7nSPwEGFA_X-6" value="Player" style="swimlane;fontStyle=1;align=center;verticalAlign=top;childLayout=stackLayout;horizontal=1;startSize=26;horizontalStack=0;resizeParent=1;resizeParentMax=0;resizeLast=0;collapsible=1;marginBottom=0;" parent="1" vertex="1">
          <mxGeometry x="310" y="40" width="170" height="210" as="geometry">
            <mxRectangle x="310" y="44" width="70" height="26" as="alternateBounds" />
          </mxGeometry>
        </mxCell>
        <mxCell id="7bflwTFQs7nSPwEGFA_X-7" value="- nickname: String&#xa;- god: God&#xa;- hasWon: boolean&#xa;- rules: Collection&lt;Rule&gt;" style="text;strokeColor=none;fillColor=none;align=left;verticalAlign=top;spacingLeft=4;spacingRight=4;overflow=hidden;rotatable=0;points=[[0,0.5],[1,0.5]];portConstraint=eastwest;" parent="7bflwTFQs7nSPwEGFA_X-6" vertex="1">
          <mxGeometry y="26" width="170" height="64" as="geometry" />
        </mxCell>
        <mxCell id="7bflwTFQs7nSPwEGFA_X-8" value="" style="line;strokeWidth=1;fillColor=none;align=left;verticalAlign=middle;spacingTop=-1;spacingLeft=3;spacingRight=3;rotatable=0;labelPosition=right;points=[];portConstraint=eastwest;" parent="7bflwTFQs7nSPwEGFA_X-6" vertex="1">
          <mxGeometry y="90" width="170" height="8" as="geometry" />
        </mxCell>
        <mxCell id="7bflwTFQs7nSPwEGFA_X-9" value="+ play(): void&#xa;- win(): void&#xa;+ setup(): void&#xa;- selectWorker(): Worker&#xa;- setGod(God): void&#xa;- checkRules(): boolean" style="text;strokeColor=none;fillColor=none;align=left;verticalAlign=top;spacingLeft=4;spacingRight=4;overflow=hidden;rotatable=0;points=[[0,0.5],[1,0.5]];portConstraint=eastwest;" parent="7bflwTFQs7nSPwEGFA_X-6" vertex="1">
          <mxGeometry y="98" width="170" height="112" as="geometry" />
        </mxCell>
        <mxCell id="7bflwTFQs7nSPwEGFA_X-40" value="Game" style="swimlane;fontStyle=1;align=center;verticalAlign=top;childLayout=stackLayout;horizontal=1;startSize=26;horizontalStack=0;resizeParent=1;resizeParentMax=0;resizeLast=0;collapsible=1;marginBottom=0;" parent="1" vertex="1">
          <mxGeometry x="670" y="40" width="160" height="190" as="geometry">
            <mxRectangle x="670" y="37" width="70" height="26" as="alternateBounds" />
          </mxGeometry>
        </mxCell>
        <mxCell id="7bflwTFQs7nSPwEGFA_X-41" value="- numPlayers: int&#xa;- startPlayer: Player" style="text;strokeColor=none;fillColor=none;align=left;verticalAlign=top;spacingLeft=4;spacingRight=4;overflow=hidden;rotatable=0;points=[[0,0.5],[1,0.5]];portConstraint=eastwest;" parent="7bflwTFQs7nSPwEGFA_X-40" vertex="1">
          <mxGeometry y="26" width="160" height="44" as="geometry" />
        </mxCell>
        <mxCell id="7bflwTFQs7nSPwEGFA_X-42" value="" style="line;strokeWidth=1;fillColor=none;align=left;verticalAlign=middle;spacingTop=-1;spacingLeft=3;spacingRight=3;rotatable=0;labelPosition=right;points=[];portConstraint=eastwest;" parent="7bflwTFQs7nSPwEGFA_X-40" vertex="1">
          <mxGeometry y="70" width="160" height="8" as="geometry" />
        </mxCell>
        <mxCell id="7bflwTFQs7nSPwEGFA_X-43" value="+ setNumPlayers(int): void&#xa;+ getNumPlayers(): int&#xa;- nextTurn(): void&#xa;+ setup(): void&#xa;+ start(): void&#xa;+ endGame(): void&#xa;- force(Worker, Space): void" style="text;strokeColor=none;fillColor=none;align=left;verticalAlign=top;spacingLeft=4;spacingRight=4;overflow=hidden;rotatable=0;points=[[0,0.5],[1,0.5]];portConstraint=eastwest;" parent="7bflwTFQs7nSPwEGFA_X-40" vertex="1">
          <mxGeometry y="78" width="160" height="112" as="geometry" />
        </mxCell>
        <mxCell id="7bflwTFQs7nSPwEGFA_X-50" value="- height" style="text;html=1;align=center;verticalAlign=middle;resizable=0;points=[];autosize=1;" parent="1" vertex="1">
          <mxGeometry x="120" y="949" width="60" height="20" as="geometry" />
        </mxCell>
        <mxCell id="7bflwTFQs7nSPwEGFA_X-57" style="endArrow=block;endSize=16;endFill=0;html=1;fontFamily=Helvetica;fontSize=11;fontColor=#000000;align=center;strokeColor=#000000;edgeStyle=orthogonalEdgeStyle;" parent="1" source="7bflwTFQs7nSPwEGFA_X-53" target="7bflwTFQs7nSPwEGFA_X-6" edge="1">
          <mxGeometry relative="1" as="geometry" />
        </mxCell>
        <mxCell id="7bflwTFQs7nSPwEGFA_X-53" value="Challenger" style="swimlane;fontStyle=1;align=center;verticalAlign=top;childLayout=stackLayout;horizontal=1;startSize=26;horizontalStack=0;resizeParent=1;resizeParentMax=0;resizeLast=0;collapsible=1;marginBottom=0;" parent="1" vertex="1">
          <mxGeometry x="300" y="380" width="190" height="74" as="geometry" />
        </mxCell>
        <mxCell id="7bflwTFQs7nSPwEGFA_X-55" value="" style="line;strokeWidth=1;fillColor=none;align=left;verticalAlign=middle;spacingTop=-1;spacingLeft=3;spacingRight=3;rotatable=0;labelPosition=right;points=[];portConstraint=eastwest;" parent="7bflwTFQs7nSPwEGFA_X-53" vertex="1">
          <mxGeometry y="26" width="190" height="8" as="geometry" />
        </mxCell>
        <mxCell id="7bflwTFQs7nSPwEGFA_X-56" value="+ chooseGods(int): void&#xa;+ chooseStartPlayer(): Player" style="text;strokeColor=none;fillColor=none;align=left;verticalAlign=top;spacingLeft=4;spacingRight=4;overflow=hidden;rotatable=0;points=[[0,0.5],[1,0.5]];portConstraint=eastwest;" parent="7bflwTFQs7nSPwEGFA_X-53" vertex="1">
          <mxGeometry y="34" width="190" height="40" as="geometry" />
        </mxCell>
        <mxCell id="7bflwTFQs7nSPwEGFA_X-59" value="&lt;p style=&quot;margin: 0px ; margin-top: 4px ; text-align: center&quot;&gt;&amp;lt;&amp;lt;Interface&amp;gt;&amp;gt;&lt;br&gt;&lt;b&gt;God&lt;/b&gt;&lt;/p&gt;&lt;hr size=&quot;1&quot;&gt;&lt;p style=&quot;margin: 0px ; margin-left: 4px&quot;&gt;&lt;br&gt;&lt;/p&gt;&lt;hr size=&quot;1&quot;&gt;&lt;p style=&quot;margin: 0px ; margin-left: 4px&quot;&gt;+ getDescription(): String&lt;/p&gt;&lt;p style=&quot;margin: 0px ; margin-left: 4px&quot;&gt;+ applyEffect(Player): void&lt;/p&gt;&lt;p style=&quot;margin: 0px ; margin-left: 4px&quot;&gt;+ hasCondition(): boolean&lt;/p&gt;&lt;p style=&quot;margin: 0px ; margin-left: 4px&quot;&gt;+ getCondition(): predicate&lt;/p&gt;&lt;p style=&quot;margin: 0px ; margin-left: 4px&quot;&gt;&lt;br&gt;&lt;/p&gt;" style="verticalAlign=top;align=left;overflow=fill;fontSize=12;fontFamily=Helvetica;html=1;" parent="1" vertex="1">
          <mxGeometry x="620" y="380" width="190" height="140" as="geometry" />
        </mxCell>
        <mxCell id="7bflwTFQs7nSPwEGFA_X-60" style="endArrow=none;html=1;edgeStyle=orthogonalEdgeStyle;fontFamily=Helvetica;fontSize=11;fontColor=#000000;align=center;strokeColor=#000000;" parent="1" source="7bflwTFQs7nSPwEGFA_X-9" target="7bflwTFQs7nSPwEGFA_X-43" edge="1">
          <mxGeometry relative="1" as="geometry">
            <Array as="points">
              <mxPoint x="670" y="149" />
            </Array>
            <mxPoint x="540" y="160" as="sourcePoint" />
            <mxPoint x="668" y="149" as="targetPoint" />
          </mxGeometry>
        </mxCell>
        <mxCell id="7bflwTFQs7nSPwEGFA_X-61" value="take part" style="text;html=1;align=center;verticalAlign=middle;resizable=0;points=[];autosize=1;" parent="1" vertex="1">
          <mxGeometry x="550" y="174" width="60" height="20" as="geometry" />
        </mxCell>
        <mxCell id="7bflwTFQs7nSPwEGFA_X-62" value="1" style="text;html=1;align=center;verticalAlign=middle;resizable=0;points=[];autosize=1;" parent="1" vertex="1">
          <mxGeometry x="640" y="174" width="20" height="20" as="geometry" />
        </mxCell>
        <mxCell id="7bflwTFQs7nSPwEGFA_X-63" value="2 .. 3" style="text;html=1;align=center;verticalAlign=middle;resizable=0;points=[];autosize=1;" parent="1" vertex="1">
          <mxGeometry x="490" y="174" width="40" height="20" as="geometry" />
        </mxCell>
        <mxCell id="Eznposk19SefW7tOgAtY-2" value="&lt;span style=&quot;text-align: center ; white-space: nowrap&quot;&gt;Rules: Contiene le regole di base sul movimento e sulla&lt;/span&gt;&lt;br style=&quot;text-align: center ; white-space: nowrap&quot;&gt;&lt;span style=&quot;text-align: center ; white-space: nowrap&quot;&gt;costruzione. Vengono modificate dalle abilità delle divinità&amp;nbsp;&lt;/span&gt;&lt;br style=&quot;text-align: center ; white-space: nowrap&quot;&gt;&lt;span style=&quot;text-align: center ; white-space: nowrap&quot;&gt;in gioco. Usate anche da checkValidSpaces e&amp;nbsp;&lt;/span&gt;&lt;br style=&quot;text-align: center ; white-space: nowrap&quot;&gt;&lt;span style=&quot;text-align: center ; white-space: nowrap&quot;&gt;checkBuildableSpaces&lt;/span&gt;" style="shape=note;whiteSpace=wrap;html=1;size=14;verticalAlign=top;align=left;spacingTop=-6;" parent="1" vertex="1">
          <mxGeometry x="490" y="1010" width="350" height="70" as="geometry" />
        </mxCell>
        <mxCell id="7bflwTFQs7nSPwEGFA_X-44" value="&lt;&lt;enum&gt;&gt; Level" style="swimlane;fontStyle=1;align=center;verticalAlign=top;childLayout=stackLayout;horizontal=1;startSize=26;horizontalStack=0;resizeParent=1;resizeParentMax=0;resizeLast=0;collapsible=1;marginBottom=0;" parent="1" vertex="1">
          <mxGeometry x="45" y="980" width="160" height="60" as="geometry" />
        </mxCell>
        <mxCell id="7bflwTFQs7nSPwEGFA_X-46" value="" style="line;strokeWidth=1;fillColor=none;align=left;verticalAlign=middle;spacingTop=-1;spacingLeft=3;spacingRight=3;rotatable=0;labelPosition=right;points=[];portConstraint=eastwest;" parent="7bflwTFQs7nSPwEGFA_X-44" vertex="1">
          <mxGeometry y="26" width="160" height="8" as="geometry" />
        </mxCell>
        <mxCell id="7bflwTFQs7nSPwEGFA_X-47" value="+ isDome(): boolean" style="text;strokeColor=none;fillColor=none;align=left;verticalAlign=top;spacingLeft=4;spacingRight=4;overflow=hidden;rotatable=0;points=[[0,0.5],[1,0.5]];portConstraint=eastwest;" parent="7bflwTFQs7nSPwEGFA_X-44" vertex="1">
          <mxGeometry y="34" width="160" height="26" as="geometry" />
        </mxCell>
        <mxCell id="Eznposk19SefW7tOgAtY-3" value="1" style="text;html=1;align=center;verticalAlign=middle;resizable=0;points=[];autosize=1;" parent="1" vertex="1">
          <mxGeometry x="140" y="200" width="20" height="20" as="geometry" />
        </mxCell>
        <mxCell id="Eznposk19SefW7tOgAtY-4" value="1" style="text;html=1;align=center;verticalAlign=middle;resizable=0;points=[];autosize=1;" parent="1" vertex="1">
          <mxGeometry x="140" y="680" width="20" height="20" as="geometry" />
        </mxCell>
        <mxCell id="Eznposk19SefW7tOgAtY-5" value="occupies" style="text;html=1;align=center;verticalAlign=middle;resizable=0;points=[];autosize=1;rotation=0;" parent="1" vertex="1">
          <mxGeometry x="135" y="460" width="60" height="20" as="geometry" />
        </mxCell>
        <mxCell id="Eznposk19SefW7tOgAtY-7" value="Possibile design pattern: strategy che è utile dove è necessario modificare dinamicamente gli algoritmi utilizzati da una applicazione. Usata per esempio dall&#39;applyEffect()." style="shape=note;whiteSpace=wrap;html=1;size=14;verticalAlign=top;align=left;spacingTop=-6;" parent="1" vertex="1">
          <mxGeometry x="490" y="930" width="350" height="70" as="geometry" />
        </mxCell>
        <mxCell id="7bflwTFQs7nSPwEGFA_X-17" value="Space" style="swimlane;fontStyle=1;align=center;verticalAlign=top;childLayout=stackLayout;horizontal=1;startSize=26;horizontalStack=0;resizeParent=1;resizeParentMax=0;resizeLast=0;collapsible=1;marginBottom=0;" parent="1" vertex="1">
          <mxGeometry x="20" y="770" width="200" height="110" as="geometry" />
        </mxCell>
        <mxCell id="7bflwTFQs7nSPwEGFA_X-18" value="- occupied: boolean" style="text;strokeColor=none;fillColor=none;align=left;verticalAlign=top;spacingLeft=4;spacingRight=4;overflow=hidden;rotatable=0;points=[[0,0.5],[1,0.5]];portConstraint=eastwest;" parent="7bflwTFQs7nSPwEGFA_X-17" vertex="1">
          <mxGeometry y="26" width="200" height="34" as="geometry" />
        </mxCell>
        <mxCell id="7bflwTFQs7nSPwEGFA_X-19" value="" style="line;strokeWidth=1;fillColor=none;align=left;verticalAlign=middle;spacingTop=-1;spacingLeft=3;spacingRight=3;rotatable=0;labelPosition=right;points=[];portConstraint=eastwest;" parent="7bflwTFQs7nSPwEGFA_X-17" vertex="1">
          <mxGeometry y="60" width="200" height="8" as="geometry" />
        </mxCell>
        <mxCell id="7bflwTFQs7nSPwEGFA_X-20" value="+ getOccupied(): boolean&#xa;+ getLevel(): boolean" style="text;strokeColor=none;fillColor=none;align=left;verticalAlign=top;spacingLeft=4;spacingRight=4;overflow=hidden;rotatable=0;points=[[0,0.5],[1,0.5]];portConstraint=eastwest;" parent="7bflwTFQs7nSPwEGFA_X-17" vertex="1">
          <mxGeometry y="68" width="200" height="42" as="geometry" />
        </mxCell>
        <mxCell id="7bflwTFQs7nSPwEGFA_X-21" value="Board" style="swimlane;fontStyle=1;align=center;verticalAlign=top;childLayout=stackLayout;horizontal=1;startSize=26;horizontalStack=0;resizeParent=1;resizeParentMax=0;resizeLast=0;collapsible=1;marginBottom=0;" parent="1" vertex="1">
          <mxGeometry x="480" y="763" width="210" height="100" as="geometry">
            <mxRectangle x="450" y="740" width="70" height="26" as="alternateBounds" />
          </mxGeometry>
        </mxCell>
        <mxCell id="7bflwTFQs7nSPwEGFA_X-22" value="+ field: type" style="text;strokeColor=none;fillColor=none;align=left;verticalAlign=top;spacingLeft=4;spacingRight=4;overflow=hidden;rotatable=0;points=[[0,0.5],[1,0.5]];portConstraint=eastwest;" parent="7bflwTFQs7nSPwEGFA_X-21" vertex="1">
          <mxGeometry y="26" width="210" height="26" as="geometry" />
        </mxCell>
        <mxCell id="7bflwTFQs7nSPwEGFA_X-23" value="" style="line;strokeWidth=1;fillColor=none;align=left;verticalAlign=middle;spacingTop=-1;spacingLeft=3;spacingRight=3;rotatable=0;labelPosition=right;points=[];portConstraint=eastwest;" parent="7bflwTFQs7nSPwEGFA_X-21" vertex="1">
          <mxGeometry y="52" width="210" height="8" as="geometry" />
        </mxCell>
        <mxCell id="7bflwTFQs7nSPwEGFA_X-24" value="- checkValidSpaces(): Space[]&#xa;- checkBuildableSpaces(): Space[]" style="text;strokeColor=none;fillColor=none;align=left;verticalAlign=top;spacingLeft=4;spacingRight=4;overflow=hidden;rotatable=0;points=[[0,0.5],[1,0.5]];portConstraint=eastwest;" parent="7bflwTFQs7nSPwEGFA_X-21" vertex="1">
          <mxGeometry y="60" width="210" height="40" as="geometry" />
        </mxCell>
        <mxCell id="bqejdpHOntapNH0-1Du5-1" value="&lt;p style=&quot;margin: 0px ; margin-top: 4px ; text-align: center&quot;&gt;&lt;b&gt;Rule&lt;/b&gt;&lt;/p&gt;&lt;hr size=&quot;1&quot;&gt;&lt;p style=&quot;margin: 0px ; margin-left: 4px&quot;&gt;+ field: Type&lt;/p&gt;&lt;hr size=&quot;1&quot;&gt;&lt;p style=&quot;margin: 0px ; margin-left: 4px&quot;&gt;+ method(): Type&lt;/p&gt;" style="verticalAlign=top;align=left;overflow=fill;fontSize=12;fontFamily=Helvetica;html=1;" vertex="1" parent="1">
          <mxGeometry x="345" y="580" width="160" height="90" as="geometry" />
        </mxCell>
      </root>
    </mxGraphModel>
  </diagram>
</mxfile>
